<?xml version="1.0" encoding="utf-8"?>
<!-- Generator: Adobe Illustrator 16.0.0, SVG Export Plug-In . SVG Version: 6.00 Build 0)  -->
<!DOCTYPE svg PUBLIC "-//W3C//DTD SVG 1.1//EN" "http://www.w3.org/Graphics/SVG/1.1/DTD/svg11.dtd">
<svg version="1.1" id="Layer_1" xmlns="http://www.w3.org/2000/svg" xmlns:xlink="http://www.w3.org/1999/xlink" x="0px" y="0px"
	 width="250.66px" height="50.67px" viewBox="0 0 250.66 50.67" enable-background="new 0 0 250.66 50.67" xml:space="preserve">
<g>
	<g>
		<path d="M14.93,10.79v30.28h220.9V10.79H14.93z M235.32,40.54h-88.91V11.31h88.91V40.54z"/>
		<path fill="#FFFFFF" d="M235.23,40.54h-88.92V11.31h88.92V40.54z"/>
		<path fill="#FFFFFF" d="M23.68,17.12c0-0.27,0.21-0.5,0.49-0.5h1c0.26,0,0.49,0.24,0.49,0.5v16.34h7.42
			c0.28,0,0.49,0.24,0.49,0.51v0.77c0,0.27-0.21,0.5-0.49,0.5h-8.92c-0.28,0-0.49-0.24-0.49-0.5V17.12z"/>
		<path fill="#FFFFFF" d="M39.43,17.12c0-0.27,0.2-0.5,0.49-0.5h10.16c0.28,0,0.49,0.24,0.49,0.5v0.77c0,0.27-0.21,0.5-0.49,0.5
			h-8.66v6.5h7.4c0.26,0,0.49,0.24,0.49,0.51v0.77c0,0.29-0.23,0.5-0.49,0.5h-7.4v6.79h8.66c0.28,0,0.49,0.24,0.49,0.51v0.77
			c0,0.27-0.21,0.5-0.49,0.5H39.91c-0.28,0-0.49-0.24-0.49-0.5V17.12z"/>
		<path fill="#FFFFFF" d="M57.78,17.12c0-0.27,0.23-0.5,0.49-0.5h1.03c0.26,0,0.49,0.24,0.49,0.5v17.62c0,0.27-0.23,0.5-0.49,0.5
			h-1.03c-0.26,0-0.49-0.24-0.49-0.5V17.12z"/>
		<path fill="#FFFFFF" d="M66.98,32.45c0.13-0.16,0.26-0.35,0.39-0.51c0.26-0.34,0.54-0.56,0.9-0.24c0.18,0.16,2.06,2.02,4.36,2.02
			c2.09,0,3.45-1.36,3.45-2.93c0-1.84-1.55-2.93-4.51-4.21c-2.84-1.28-4.54-2.48-4.54-5.51c0-1.81,1.39-4.74,5.49-4.74
			c2.52,0,4.41,1.36,4.41,1.36c0.16,0.08,0.47,0.4,0.16,0.9c-0.1,0.16-0.21,0.35-0.31,0.51c-0.23,0.37-0.49,0.48-0.9,0.24
			c-0.18-0.1-1.8-1.22-3.38-1.22c-2.73,0-3.56,1.81-3.56,2.93c0,1.78,1.32,2.82,3.48,3.75c3.48,1.46,5.72,2.82,5.72,5.91
			c0,2.77-2.55,4.79-5.57,4.79c-3.04,0-5.1-1.84-5.44-2.16C66.93,33.17,66.67,32.96,66.98,32.45z"/>
		<path fill="#FFFFFF" d="M84.74,17.12c0-0.27,0.23-0.5,0.49-0.5h0.98c0.28,0,0.49,0.24,0.49,0.5v11.1c0,3.03,1.83,5.4,4.84,5.4
			c3.04,0,4.9-2.32,4.9-5.35V17.12c0-0.27,0.21-0.5,0.49-0.5h0.98c0.26,0,0.49,0.24,0.49,0.5v11.26c0,4.05-2.79,7.14-6.86,7.14
			c-4.04,0-6.8-3.09-6.8-7.14V17.12z"/>
		<path fill="#FFFFFF" d="M106.52,17.12c0-0.27,0.21-0.5,0.49-0.5h6.67c3.09,0,5.62,2.5,5.62,5.67c0,2.45-1.57,4.5-3.81,5.43
			l3.53,6.76c0.18,0.35,0,0.77-0.44,0.77h-1.31c-0.23,0-0.36-0.13-0.41-0.24l-3.43-7.05h-4.92v6.79c0,0.27-0.23,0.5-0.49,0.5h-1
			c-0.29,0-0.49-0.24-0.49-0.5V17.12z M113.55,26.19c1.98,0,3.71-1.7,3.71-3.89c0-2.02-1.73-3.75-3.71-3.75h-5v7.64H113.55z"/>
		<path fill="#FFFFFF" d="M126.65,17.12c0-0.27,0.21-0.5,0.49-0.5h10.16c0.28,0,0.49,0.24,0.49,0.5v0.77c0,0.27-0.21,0.5-0.49,0.5
			h-8.66v6.5h7.4c0.26,0,0.49,0.24,0.49,0.51v0.77c0,0.29-0.23,0.5-0.49,0.5h-7.4v6.79h8.66c0.28,0,0.49,0.24,0.49,0.51v0.77
			c0,0.27-0.21,0.5-0.49,0.5h-10.16c-0.28,0-0.49-0.24-0.49-0.5V17.12z"/>
		<path d="M164.11,16.54c2.55,0,4.39,0.91,6.11,2.43c0.2,0.21,0.23,0.52,0.03,0.73l-0.68,0.71c-0.2,0.26-0.41,0.23-0.66-0.03
			c-1.31-1.17-3.1-1.96-4.82-1.96c-3.99,0-7.04,3.47-7.04,7.51c0,4.01,3.06,7.48,7.04,7.48c2.2,0,3.49-0.91,4.82-1.96
			c0.25-0.21,0.45-0.18,0.61-0.08l0.76,0.7c0.2,0.16,0.15,0.52-0.03,0.7c-1.72,1.72-3.89,2.53-6.14,2.53
			c-5.05,0-9.11-4.15-9.11-9.36C154.99,20.74,159.06,16.54,164.11,16.54z"/>
		<path d="M177.69,17.3c0-0.26,0.2-0.5,0.48-0.5h0.98c0.25,0,0.48,0.23,0.48,0.5v16.01h7.27c0.28,0,0.48,0.23,0.48,0.49v0.76
			c0,0.26-0.2,0.49-0.48,0.49h-8.73c-0.28,0-0.48-0.23-0.48-0.49V17.3z"/>
		<path d="M193.04,17.3c0-0.26,0.23-0.5,0.48-0.5h0.96c0.28,0,0.48,0.23,0.48,0.5v10.87c0,2.97,1.79,5.29,4.75,5.29
			c2.98,0,4.8-2.27,4.8-5.24V17.3c0-0.26,0.21-0.5,0.48-0.5h0.96c0.25,0,0.48,0.23,0.48,0.5v11.03c0,3.96-2.73,6.99-6.72,6.99
			c-3.96,0-6.67-3.02-6.67-6.99V17.3z"/>
		<path d="M214.9,17.3c0-0.26,0.2-0.5,0.48-0.5h5.53c3.08,0,5.17,2.06,5.17,4.8c0,2.01-1.29,3.47-2.47,4.17
			c1.34,0.57,3.03,1.85,3.03,4.25c0,2.92-2.25,5.03-5.5,5.03h-5.76c-0.27,0-0.48-0.23-0.48-0.49V17.3z M221.34,33.31
			c1.85,0,3.18-1.43,3.18-3.31c0-1.85-1.64-3.21-3.61-3.21h-4.17v6.52H221.34z M220.91,24.99c1.94,0,3.03-1.43,3.03-3.26
			c0-1.88-1.08-3.13-3.03-3.13h-4.11v6.39H220.91z"/>
	</g>
	<path d="M246.49,6.11c0.49-0.31,0.77-0.83,0.77-1.47c0-1.08-0.75-1.75-1.97-1.75h-1.8v4.88h1.03V6.41h0.77c0.04,0,0.09,0,0.14,0
		l1,1.36h1.28L246.49,6.11z M245.29,5.38h-0.77V3.93h0.77c0.94,0,0.94,0.54,0.94,0.71C246.23,4.82,246.23,5.38,245.29,5.38z"/>
	<path d="M245.29,5.38"/>
	<path d="M245.32,0c-2.94,0-5.33,2.39-5.33,5.33c0,2.94,2.39,5.33,5.33,5.33c2.94,0,5.33-2.39,5.33-5.33
		C250.66,2.39,248.26,0,245.32,0z M245.32,9.83c-2.48,0-4.49-2.02-4.49-4.5s2.02-4.5,4.49-4.5c2.48,0,4.5,2.02,4.5,4.5
		S247.8,9.83,245.32,9.83z"/>
</g>
</svg>
